/* XPM */
static char *_9b8f32f5c414418e100a84a86cbbb146iG1rlPVaBuyRh3P[] = {
/* columns rows colors chars-per-pixel */
"32 32 11 1 ",
"  c black",
". c #1E2848",
"X c #27345E",
"o c #313C61",
"O c #273C7F",
"+ c #213781",
"@ c #3C4D86",
"# c #003BFF",
"$ c #2F57D7",
"% c #194BE9",
"& c #4E75F8",
/* pixels */
"                                ",
"                                ",
"                                ",
"            @&%@%&%@            ",
"        %@%@%o&%@%o%@&%%        ",
"       &&&@&........%&o@%       ",
"      o%#o..OXXXXXXO..%#@%      ",
"     %%@&.OXXXXXXXXXXO.&%o%     ",
"     o#%.XXXXXXXXXXXXXX.%#%     ",
"     %&.XOXXX++++++XXXOX.@&     ",
"    %@.OXXXO++++++++OXXXO.o%    ",
"    o%.XXXO++O++++O++OXXX.@%    ",
"   &%.OXXX++++$$$$++++XXXO.&%   ",
"   %%.XXX++O+$$$$$$+O++XXX.%o   ",
"   o&.XXX+++$$O$$O$$+++XXX.%@   ",
"   @%.XXX+++$$$..$$$+++XXX.%&   ",
"   %%.XXX+++$$$..$$$+++XXX.o%   ",
"   @&.XXX+++$$O$$O$$+++XXX.%@   ",
"   %%.XXX++O+$$$$$$+O++XXX.&%   ",
"   %@.OXXX++++$$$$++++XXXO.%o   ",
"    %%.XXXO++O++++O++OXXX.%%    ",
"    o%.OXXXO++++++++OXXXO.@o    ",
"    %%%.XOXXX++++++XXXOX.%%%    ",
"     @#%.XXXXXXXXXXXXXX.%#o     ",
"     %%o%.OXXXXXXXXXXO.%%&&     ",
"      &%#%..OXXXXXXO..%#o%      ",
"       o%o%&........%%o%%       ",
"        %&@%%o%o%%%oo@%&        ",
"            o%&@%o&%            ",
"                                ",
"                                ",
"                                "
};
