/* XPM */
static char *de2148d75eba41c3864d2d8cfca48a28cZGASKfZKtVco2dj[] = {
/* columns rows colors chars-per-pixel */
"32 32 3 1 ",
"  c black",
". c #302F2F",
"X c white",
/* pixels */
"                                ",
"                                ",
"                                ",
"                                ",
"                                ",
"                                ",
"            XXXXXXXX            ",
"       XXXXXXXXXXXXXXXXXX       ",
"   XXXXXXXXXXXXXXXXXXXXXXXXXX   ",
"  XXXXXXXXXXXXXXXXXXXXXXXXXXXX  ",
" XXXXXXXXXXXXXXXXXXXXXXXXXXXXXX ",
" XXXXXXX  . XXXXXXXX.   XXXXXXX ",
" XXXXXXX .  XXXXXXXX  . XXXXXXX ",
" XXXXXXXXXXXXXXXXXXXXXXXXXXXXXX ",
" XXXXXXXXXXXXXXXXXXXXXXXXXXXXXX ",
" XXXXXXXXXXXXXXXXXXXXXXXXXXXXXX ",
" XXXXXXXXXXXXXXXXXXXXXXXXXXXXXX ",
" XXXXXXXXXXXXXXXXXXXXXXXXXXXXXX ",
" XXXXXXXXXXXXXXXXXXXXXXXXXXXXXX ",
"  XXXXXXXXXXX      XXXXXXXXXXX  ",
"        XXXXX      XXXXX        ",
"     XXXXX  XXXXXXXX  XXXXX     ",
"     XXXXX   XXXXXX   XXXXX     ",
"    XXXX                XXXX    ",
"   XXXX                  XXXX   ",
"  XXXX                    XXXX  ",
" XXXX                      XXXX ",
"                                ",
"                                ",
"                                ",
"                                ",
"                                "
};
