/* XPM */
static char *_172b707e4ef40e7b269ba54dcd8da6746gTeYKXzBwTWx7m[] = {
/* columns rows colors chars-per-pixel */
"32 32 10 1 ",
"  c black",
". c #071651",
"X c #16286D",
"o c #2B2467",
"O c #103EEE",
"+ c #4765D8",
"@ c #7F90D2",
"# c #ADB9E8",
"$ c #FBFBFB",
"% c white",
/* pixels */
"                                ",
"                  %%%%%%%%      ",
"                 %XXoXXOO%      ",
"                %XXXXXXO$       ",
"               %XXXXXXXO%       ",
"              %XXXXooXX%        ",
"      %%%%%%%%%%%oXXXXX%        ",
"       %OOXXXXXXXXXXXX%%        ",
"        %OOXoXXXXXXXXX%+%       ",
"         %%%%%%XXXoXX%+XX%      ",
"          %XXXXXXooXX%+XX%      ",
"         %XXXXXXXXXX%%%%%%      ",
"        %XXXXXooXoXX%           ",
"       %XX@@#XXXXXX%%           ",
"      %XX@@#XXoXXX%%X%          ",
"     %XX@#@@XXXXoX%++X%         ",
"     %..@@#@......%++X%         ",
"      %..@@@......%%X%          ",
"       %..@##..o...%%           ",
"        %......o.o..%           ",
"         %..o.......%%%%%%      ",
"          %..........%+XX%      ",
"         %%%%%%o.o.o.%+XX%      ",
"        %OO...........%+%       ",
"       %OO...o...ooo..%%        ",
"      %%%%%%%%%%%......%        ",
"              %.....oo.%        ",
"               %..oo...O%       ",
"                %....o.O%       ",
"                 %..o..OO%      ",
"                  %%%%%%%%      ",
"                                "
};
