/* XPM */
static char *_29d5fbd6d994678c11c474fcc04993ajbdyaKgDCHTjdgmO[] = {
/* columns rows colors chars-per-pixel */
"32 32 10 1 ",
"  c black",
". c #071651",
"X c #16286D",
"o c #2B2467",
"O c #103EEE",
"+ c #4765D8",
"@ c #7F90D2",
"# c #ADB9E8",
"$ c #FBFBFB",
"% c white",
/* pixels */
"                                ",
"                                ",
"                                ",
"                                ",
"                                ",
"               %%               ",
"      %       %.X%       %      ",
"      %%     %..XX%     %%      ",
"      %O%   %..@@XX%   %O%      ",
"      %OO% %..@@#@XX% %OO%      ",
"      %.O%%..@@#@@@XX%%OX%      ",
"      %..%...#@@@#@XXX%XX%      ",
"      %..%.o.#..XX#XXX%oX%      ",
"      %o.%......XXXXXX%XX%      ",
"     %%..%......XoXoXX%XX%%     ",
"    %.%..o..oo..XXXoXXXXX%X%    ",
"   %..%.........oXXXXXXXX%XX%   ",
"  %....o.o..o...XXXoXoXXXoXXX%  ",
" %..o..o......%%%%XXXooXXXXXXX% ",
" %..o..o.o...%%++%%XXXXXXXoXXX% ",
" %o..o.....%%%X++X%%%XXXXXoXXo% ",
" %.o.o...%%%  %XX%  %%%XXXXXXX% ",
" %.....%%++%   %%   %++%%XXXXX% ",
" %OOO%%%+XX%        %XX+%%%OOO% ",
" %O%%   %XX%        %XX%   %$O% ",
" %%      %%%        %%%      %% ",
"                                ",
"                                ",
"                                ",
"                                ",
"                                ",
"                                "
};
