/* XPM */
static char *c9d363b554484b11ced90f1861d16875vyUi8hf31ReaWfAQ[] = {
/* columns rows colors chars-per-pixel */
"32 32 10 1 ",
"  c black",
". c #071651",
"X c #16286D",
"o c #2B2467",
"O c #103EEE",
"+ c #4765D8",
"@ c #7F90D2",
"# c #ADB9E8",
"$ c #FBFBFB",
"% c white",
/* pixels */
"                                ",
"                                ",
"                                ",
"                                ",
"                                ",
"                                ",
" %%      %%%        %%%      %% ",
" %O$%   %XX%        %XX%   %%O% ",
" %OOO%%%+XX%        %XX+%%%OOO% ",
" %XXXXX%%++%   %%   %++%%.....% ",
" %XXXXXXX%%%  %XX%  %%%...o.o.% ",
" %oXXoXXXXX%%%X++X%%%.....o..o% ",
" %XXXoXXXXXXX%%++%%...o.o..o..% ",
" %XXXXXXXooXXX%%%%......o..o..% ",
"  %XXXoXXXoXoXXX...o..o.o....%  ",
"   %XX%XXXXXXXXo.........%..%   ",
"    %X%XXXXXoXXX..oo..o..%.%    ",
"     %%XX%XXoXoX......%..%%     ",
"      %XX%XXXXXX......%.o%      ",
"      %Xo%XXX#XX..#.o.%..%      ",
"      %XX%XXX@#@@@#...%..%      ",
"      %XO%%XX@@@#@@..%%O.%      ",
"      %OO% %XX@#@@..% %OO%      ",
"      %O%   %XX@@..%   %O%      ",
"      %%     %XX..%     %%      ",
"      %       %X.%       %      ",
"               %%               ",
"                                ",
"                                ",
"                                ",
"                                ",
"                                "
};
