/* XPM */
static char *_0d9eb2c881a4cf7c9b4edd4a8f2a87dXy1eJMMnBz78vl8a[] = {
/* columns rows colors chars-per-pixel */
"32 32 10 1 ",
"  c black",
". c #071651",
"X c #16286D",
"o c #2B2467",
"O c #103EEE",
"+ c #4765D8",
"@ c #7F90D2",
"# c #ADB9E8",
"$ c #FBFBFB",
"% c white",
/* pixels */
"                                ",
"      %%%%%%%%                  ",
"      %OO..o..%                 ",
"       %O.o....%                ",
"       %O...oo..%               ",
"        %.oo.....%              ",
"        %......%%%%%%%%%%%      ",
"        %%..ooo...o...OO%       ",
"       %+%...........OO%        ",
"      %XX+%.o.o.o%%%%%%         ",
"      %XX+%..........%          ",
"      %%%%%%.......o..%         ",
"           %..o.o......%        ",
"           %%...o..##@..%       ",
"          %X%%......@@@..%      ",
"         %X++%......@#@@..%     ",
"         %X++%XoXXXX@@#@XX%     ",
"          %X%%XXXoXX#@@XX%      ",
"           %%XXXXXX#@@XX%       ",
"           %XXoXooXXXXX%        ",
"      %%%%%%XXXXXXXXXX%         ",
"      %XX+%XXooXXXXXX%          ",
"      %XX+%XXoXXX%%%%%%         ",
"       %+%XXXXXXXXXoXOO%        ",
"        %%XXXXXXXXXXXXOO%       ",
"        %XXXXXo%%%%%%%%%%%      ",
"        %XXooXXXX%              ",
"       %OXXXXXXX%               ",
"       $OXXXXXX%                ",
"      %OOXXoXX%                 ",
"      %%%%%%%%                  ",
"                                "
};
