/* XPM */
static char *_f4957dc38c3484fba37352ae977e492M5GEcHAI4EA7WfNY[] = {
/* columns rows colors chars-per-pixel */
"32 32 3 1 ",
"  c black",
". c red",
"X c white",
/* pixels */
"XXXXXXXXXXXXXXXXXXXXXXXXXXXXXXXX",
"XX          ........          XX",
"X        ...        ...        X",
"X       .              .       X",
"X     ..                ..     X",
"X    .                    .    X",
"X   .    ..          ..    .   X",
"X   .    ...        ...    .   X",
"X  .      ...      ...      .  X",
"X .        ...    ...        . X",
"X .         ...  ...         . X",
"X .          ......          . X",
"X.       ..   ....   ..       .X",
"X.       ...   ..   ...       .X",
"X.        ...      ...        .X",
"X.         ...    ...         .X",
"X.          ...  ...          .X",
"X.           ......           .X",
"X.       ..   ....   ..       .X",
"X.       ...   ..   ...       .X",
"X .       ...      ...       . X",
"X .        ...    ...        . X",
"X .         ...  ...         . X",
"X  .         ......         .  X",
"X   .         ....         .   X",
"X   .          ..          .   X",
"X    .                    .    X",
"X     ..                ..     X",
"X       .              .       X",
"X        ...        ...        X",
"XX          ........          XX",
"XXXXXXXXXXXXXXXXXXXXXXXXXXXXXXXX"
};
