/* XPM */
static char *_92fb5ee580b4971a9677987e71898f1pQbb8aUqgzJYD3gi[] = {
/* columns rows colors chars-per-pixel */
"32 32 3 1 ",
"  c black",
". c #0AFF00",
"X c white",
/* pixels */
"XXXXXXXXXXXXXXXXXXXXXXXXXXXXXXXX",
"XX          ........          XX",
"X        ...        ...        X",
"X       .              .       X",
"X     ..                ..     X",
"X    .                    .    X",
"X   .          ..          .   X",
"X   .         ....         .   X",
"X  .         ......         .  X",
"X .         ...  ...         . X",
"X .        ...    ...        . X",
"X .       ...      ...       . X",
"X.       ...   ..   ...       .X",
"X.       ..   ....   ..       .X",
"X.           ......           .X",
"X.          ...  ...          .X",
"X.         ...    ...         .X",
"X.        ...      ...        .X",
"X.       ...   ..   ...       .X",
"X.       ..   ....   ..       .X",
"X .          ......          . X",
"X .         ...  ...         . X",
"X .        ...    ...        . X",
"X  .      ...      ...      .  X",
"X   .    ...        ...    .   X",
"X   .    ..          ..    .   X",
"X    .                    .    X",
"X     ..                ..     X",
"X       .              .       X",
"X        ...        ...        X",
"XX          ........          XX",
"XXXXXXXXXXXXXXXXXXXXXXXXXXXXXXXX"
};
