/* XPM */
static char *_87408b47799458a888e4d575a181603zLMUTGnonz4Ualn4[] = {
/* columns rows colors chars-per-pixel */
"32 32 4 1 ",
"  c black",
". c #3F1111",
"X c #6C0F0F",
"o c red",
/* pixels */
"              ....              ",
"             ......             ",
"            ...XX...            ",
"            ..XooX..            ",
"            ..XooX..            ",
"            ..XooX..            ",
"            ..XooX..            ",
"            ..XooX..            ",
"            ..XooX..            ",
"            ..XooX..            ",
"            ..XooX..            ",
"            ..XooX..            ",
"            ..XooX..            ",
"            ..XooX..            ",
"            ..XooX..            ",
"            ..XooX..            ",
"            ..XooX..            ",
"            ..XooX..            ",
"            ..XooX..            ",
"            ..XooX..            ",
"            ..XooX..            ",
"            ..XooX..            ",
"            ..XooX..            ",
"            ..XooX..            ",
"            ..XooX..            ",
"            ..XooX..            ",
"            ..XooX..            ",
"            ..XooX..            ",
"            ..XooX..            ",
"            ...XX...            ",
"             ......             ",
"              ....              "
};
