/* XPM */
static char *ffe20d16756b453487607cc648cb8e06h7dPVnxlFdd2EYlc[] = {
/* columns rows colors chars-per-pixel */
"32 32 4 1 ",
"  c black",
". c red",
"X c #FF9800",
"o c white",
/* pixels */
"oooooooooooooooooooooooooooooooo",
"oo          ........          oo",
"o        ...        ...        o",
"o       .              .       o",
"o     ..                ..     o",
"o    .                    .    o",
"o   .   oooo        oooo   .   o",
"o   .    oooo      oooo    .   o",
"o  .      oooo    oooo      .  o",
"o .        oooo  oooo        . o",
"o .         oooXXooo         . o",
"o .          ooXXoo          . o",
"o.             XX             .o",
"o.             XX             .o",
"o.             XX             .o",
"o.             XX             .o",
"o.             XX             .o",
"o.             XX             .o",
"o.             XX             .o",
"o.             XX             .o",
"o .            XX            . o",
"o .            XX            . o",
"o .            XX            . o",
"o  .       ..........       .  o",
"o   .      ..........      .   o",
"o   .       ........       .   o",
"o    .       ......       .    o",
"o     ..      ....      ..     o",
"o       .      ..      .       o",
"o        ...        ...        o",
"oo          ........          oo",
"oooooooooooooooooooooooooooooooo"
};
