/* XPM */
static char *_a14c1e03e614fa6cf3b182dfd9105d3TlWh46ewDpDDcZIs[] = {
/* columns rows colors chars-per-pixel */
"32 32 4 1 ",
"  c black",
". c #0AFF00",
"X c #FF9800",
"o c white",
/* pixels */
"oooooooooooooooooooooooooooooooo",
"oo          ........          oo",
"o        ...        ...        o",
"o       .      ..      .       o",
"o     ..      ....      ..     o",
"o    .       ......       .    o",
"o   .       ........       .   o",
"o   .      ..........      .   o",
"o  .       ..........       .  o",
"o .            XX            . o",
"o .            XX            . o",
"o .            XX            . o",
"o.             XX             .o",
"o.             XX             .o",
"o.             XX             .o",
"o.             XX             .o",
"o.             XX             .o",
"o.             XX             .o",
"o.             XX             .o",
"o.             XX             .o",
"o .          ooXXoo          . o",
"o .         oooXXooo         . o",
"o .        oooo  oooo        . o",
"o  .      oooo    oooo      .  o",
"o   .    oooo      oooo    .   o",
"o   .   oooo        oooo   .   o",
"o    .                    .    o",
"o     ..                ..     o",
"o       .              .       o",
"o        ...        ...        o",
"oo          ........          oo",
"oooooooooooooooooooooooooooooooo"
};
