/* XPM */
static char *f01143bf3e2f4b0bd4ca6ba9886305d114rYPSX5eTfYtCNR[] = {
/* columns rows colors chars-per-pixel */
"32 32 2 1 ",
"  c black",
". c white",
/* pixels */
"...                             ",
"...                             ",
"...                             ",
"...                             ",
"...                             ",
"...                             ",
"...                             ",
"...                             ",
"...                             ",
"...                             ",
"...                             ",
"...                             ",
"...                             ",
"...                             ",
"...                             ",
"...                             ",
"...                             ",
"...                             ",
"...                             ",
"...                             ",
"...                             ",
"...                             ",
"...                             ",
"...                             ",
"...                             ",
"...                             ",
"...                             ",
"...                             ",
"...                             ",
"................................",
"................................",
"................................"
};
