/* XPM */
static char *_7f0c2c0be304ca4f712089063e4eae6z5D3mIrUIB1FAegJ[] = {
/* columns rows colors chars-per-pixel */
"32 32 2 1 ",
"  c black",
". c white",
/* pixels */
"                             ...",
"                             ...",
"                             ...",
"                             ...",
"                             ...",
"                             ...",
"                             ...",
"                             ...",
"                             ...",
"                             ...",
"                             ...",
"                             ...",
"                             ...",
"                             ...",
"                             ...",
"                             ...",
"                             ...",
"                             ...",
"                             ...",
"                             ...",
"                             ...",
"                             ...",
"                             ...",
"                             ...",
"                             ...",
"                             ...",
"                             ...",
"                             ...",
"                             ...",
"................................",
"................................",
"................................"
};
