/* XPM */
static char *_0cdb8748b21424ba4309dc580e0ddcbssXRYeWREr4E30MY[] = {
/* columns rows colors chars-per-pixel */
"32 32 3 1 ",
"  c black",
". c #FFB400",
"X c #FFCE58",
/* pixels */
"                                ",
"                                ",
"                                ",
"                                ",
"                                ",
"                                ",
"                                ",
"                                ",
"                                ",
"                                ",
"                                ",
"                                ",
"          ...                   ",
"         .XXX.                  ",
"        .XX XX.                 ",
"        .XX XX..........        ",
"        .XX XX..........        ",
"        .XX XX.    .X.          ",
"         .XXX.     . .          ",
"          ...                   ",
"                                ",
"                                ",
"                                ",
"                                ",
"                                ",
"                                ",
"                                ",
"                                ",
"                                ",
"                                ",
"                                ",
"                                "
};
