/* XPM */
static char *_02f39d2b31748b4a35023d9da88300buZOoPSC98BSHMrYI[] = {
/* columns rows colors chars-per-pixel */
"32 32 2 1 ",
"  c black",
". c white",
/* pixels */
"...                             ",
"...                             ",
"...                             ",
"...                             ",
"...                             ",
"...                             ",
"...                             ",
"...                             ",
"...                             ",
"...                             ",
"...                             ",
"...                             ",
"...                             ",
"...                             ",
"...                             ",
"...                             ",
"...                             ",
"...                             ",
"...                             ",
"...                             ",
"...                             ",
"...                             ",
"...                             ",
"...                             ",
"...                             ",
"...                             ",
"...                             ",
"...                             ",
"...                             ",
"...                             ",
"...                             ",
"...                             "
};
