/* XPM */
static char *f653a0a6453e4f8dd824d6c096f9246ce8zEjTpAh0THRph2[] = {
/* columns rows colors chars-per-pixel */
"32 32 2 1 ",
"  c black",
". c white",
/* pixels */
"                             ...",
"                             ...",
"                             ...",
"                             ...",
"                             ...",
"                             ...",
"                             ...",
"                             ...",
"                             ...",
"                             ...",
"                             ...",
"                             ...",
"                             ...",
"                             ...",
"                             ...",
"                             ...",
"                             ...",
"                             ...",
"                             ...",
"                             ...",
"                             ...",
"                             ...",
"                             ...",
"                             ...",
"                             ...",
"                             ...",
"                             ...",
"                             ...",
"                             ...",
"                             ...",
"                             ...",
"                             ..."
};
