/* XPM */
static char *b9f8810875ce4148fbf32171d2b2810fDjJG57AqcEfcxuzh[] = {
/* columns rows colors chars-per-pixel */
"32 32 2 1 ",
"  c black",
". c white",
/* pixels */
"................................",
"................................",
"................................",
"...                             ",
"...                             ",
"...                             ",
"...                             ",
"...                             ",
"...                             ",
"...                             ",
"...                             ",
"...                             ",
"...                             ",
"...                             ",
"...                             ",
"...                             ",
"...                             ",
"...                             ",
"...                             ",
"...                             ",
"...                             ",
"...                             ",
"...                             ",
"...                             ",
"...                             ",
"...                             ",
"...                             ",
"...                             ",
"...                             ",
"...                             ",
"...                             ",
"...                             "
};
