/* XPM */
static char *_859ca55cd514c958b81cd0316b49ebb56emVmQ8ck6Rpc7m[] = {
/* columns rows colors chars-per-pixel */
"32 32 2 1 ",
"  c black",
". c white",
/* pixels */
"................................",
"................................",
"................................",
"                             ...",
"                             ...",
"                             ...",
"                             ...",
"                             ...",
"                             ...",
"                             ...",
"                             ...",
"                             ...",
"                             ...",
"                             ...",
"                             ...",
"                             ...",
"                             ...",
"                             ...",
"                             ...",
"                             ...",
"                             ...",
"                             ...",
"                             ...",
"                             ...",
"                             ...",
"                             ...",
"                             ...",
"                             ...",
"                             ...",
"                             ...",
"                             ...",
"                             ..."
};
