/* XPM */
static char *_b07474e231245d68ac983e38c045befwO3VN64k6AMhr5hL[] = {
/* columns rows colors chars-per-pixel */
"100 100 12 1 ",
"  c None",
". c black",
"X c #875030",
"o c #AB663D",
"O c #D47211",
"+ c #FF9C19",
"@ c #B38756",
"# c #BD905D",
"$ c #BF925E",
"% c #FFCC91",
"& c #FFEDBD",
"* c white",
/* pixels */
"                                                                                                    ",
"                                                                                                    ",
"                                                                                                    ",
"                                                                                                    ",
"                                                                                                    ",
"                                                                                                    ",
"                                                                                                    ",
"                                                                                                    ",
"                                                                                                    ",
"                                         .......................                                    ",
"                                         .......................                                    ",
"                                         .......................                                    ",
"                                         .......................                                    ",
"                                         .......................                                    ",
"                                     ....ooooXXXXXXXXXXXXXXXoooo....                                ",
"                                     ....ooooXXXXXXXXXXXXXXXoooo....                                ",
"                                     ....ooooXXXXXXXXXXXXXXXoooo....                                ",
"                                     ....ooooXXXXXXXXXXXXXXXoooo....                                ",
"                                     ....ooooXXXXXXXXXXXXXXXoooo....                                ",
"                                 ....ooooXXXX...............XXXXoooo....                            ",
"                                 ....ooooXXXX...............XXXXoooo....                            ",
"                                 ....ooooXXXX...............XXXXoooo....                            ",
"                                 ....ooooXXXX...............XXXXoooo....                            ",
"                                 ....ooooXXXX...............XXXXoooo....                            ",
"                                 ....ooooXXXX...............XXXXoooo....                            ",
"                                 ....XXXX....$$$$$$$$$$$$$$$....XXXX....                            ",
"                                 ....XXXX....$$$$$$$$$$$$$$$....XXXX....                            ",
"                                 ....XXXX....$$$$$$$$$$$$$$$....XXXX....                            ",
"                                 ....XXXX....$$$$$$$$$$$$$$$....XXXX....                            ",
"                                 ....XXXX....$$$$$$$$$$$$$$$....XXXX....                            ",
"                                 ........$$$$%%%%&&&&%%%%%%%$$$$........                            ",
"                                 ........$$$$%%%%&&&&%%%%%%%$$$$........                            ",
"                                 ........$$$$%%%%&&&&%%%%%%%$$$$........                            ",
"                                 ........$$$$%%%%&&&&%%%%%%%$$$$........                            ",
"                                 ........$$$$%%%%&&&&%%%%%%%$$$$........                            ",
"                                 ........%%%%....%%%%%%%....%%%%........                            ",
"                                 ........%%%%....%%%%%%%....%%%%........                            ",
"                           *     ........%%%%....%%%%%%%....%%%%........                            ",
"                           *     ........%%%%....%%%%%%%....%%%%........                            ",
"                                 ........%%%%....%%%%%%%....%%%%........                            ",
"                                 ....$$$$%%%%....%%%%%%%....%%%%$$$$....                            ",
"                                 ....$$$$%%%%....%%%%%%%....%%%%$$$$....                            ",
"                                 ....$$$$%%%%....%%%%%%%....%%%%$$$$....                            ",
"                                 ....$$$$%%%%....%%%%%%%....%%%%$$$$....                            ",
"                                 ....$$$$%%%%....%%%%%%%....%%%%$$$$....                            ",
"                                 ....$$$$%%%%....%%%%%%%....%%%%$$$$....                            ",
"                                     ....$$$$%%%%%%%%%%%%%%%$$$$....                                ",
"                                     ....$$$$%%%%%%%%%%%%%%%$$$$....                                ",
"                                     ....$$$$%%%%%%%%%%%%%%%$$$$....                                ",
"                                     ....$$$$%%%%%%%%%%%%%%%$$$$....                                ",
"                                     ....$$$$%%%%%%%%%%%%%%%$$$$....                                ",
"                                 ....OOOO.......................OOOO....                            ",
"                                 ....OOOO.......................OOOO....                            ",
"                                 ....OOOO.......................OOOO....                            ",
"                                 ....OOOO.......................OOOO....                            ",
"                                 ....OOOO.......................OOOO....                            ",
"                             ............OOOOOOOO$###$$$OOOOOOOO............                        ",
"                             ............OOOOOOOO$###$$$OOOOOOOO............                        ",
"                             ............OOOOOOOO$###$$$OOOOOOOO............                        ",
"                             ............OOOOOOOO$####$$OOOOOOOO............                        ",
"                             ............OOOOOOOO$$$$$$$OOOOOOOO............                        ",
"                          ...&&&&%%%%$$$$....OOOO+++++++OOOO....$$$$%%%%....                        ",
"                          ...&&&&%%%%$$$$....OOOO+++++++OOOO....$$$$%%%%....                        ",
"                          ...&&&&%%%%$$$$....OOOO+++++++OOOO....$$$$%%%%....                        ",
"                          ...&&&&%%%%$$$$....OOOO+++++++OOOO....$$$$%%%%....                        ",
"                          ...&&&&%%%%$$$$....OOOO+++++++OOOO....$$$$%%%%....                        ",
"                          ...&&&&%%%%$$$$....OOOO+++++++OOOO....$$$$%%%%....                        ",
"                          ...%%%%$$$$$$$$....+++++++++++++++............                            ",
"                          ...%%%%$$$$$$$$....+++++++++++++++............                            ",
"                          ...%%%%$$$$$$$$....+++++++++++++++............                            ",
"                          ...%%%%$$$$$$$$....+++++++++++++++............                            ",
"                          ...%%%%$$$$$$$$....+++++++++++++++............                            ",
"                             ................OOOO....OOO++++....                                    ",
"                             ................OOOO....OOO++++....                                    ",
"                             ................OOOO....OOO++++....                                    ",
"                             ................OOOO....OOO++++....                                    ",
"                             ................OOOO....OOO++++....                                    ",
"                                         ....@@@@....OOO++++....                                    ",
"                                         ....@@@@....OOO++++....                                    ",
"                                         ....@@@@....OOO++++....                                    ",
"                                         ....@@@@....OOO++++....                                    ",
"                                         ....@@@@....OOO++++....                                    ",
"                                     ................%%%%%%%........                                ",
"                                     ................%%%%%%%........                                ",
"                                     ................%%%%%%%........                                ",
"                                     ................%%%%%%%........                                ",
"                                     ................%%%%%%%........                                ",
"                                     ................%%%%%%%........                                ",
"                                                 ...............                                    ",
"                                                 ...............                                    ",
"                                                 ...............                                    ",
"                                                 ...............                                    ",
"                                                 ...............                                    ",
"                                                                                                    ",
"                                                                                                    ",
"                                                                                                    ",
"                                                                                                    ",
"                                                                                                    ",
"                                                                                                    ",
"                                                                                                    "
};
