/* XPM */
static char *_d6b1c17bfc3405f8d3a135c8b095743cjW2OXn53ZzbTEep[] = {
/* columns rows colors chars-per-pixel */
"32 32 6 1 ",
"  c black",
". c #FF5000",
"X c #FF6000",
"o c #EBAD3E",
"O c yellow",
"+ c white",
/* pixels */
"                                ",
"                                ",
"                                ",
"                                ",
"                                ",
"                                ",
"                                ",
"              oo                ",
"          ++ o o + +            ",
"          +X+ + +  +  +         ",
"        +  X  o   +   +         ",
"    +       ++ + oX  oX         ",
"        +            ++X++      ",
"           +   .     + + +      ",
"        +    O ++O+  +o X       ",
"      +  o.+ X+ o+ O . .+.      ",
"      + .+O o +O +.  + .o       ",
"       o              O+ +      ",
"     XX  + XX+   o oOX+         ",
"         +O  +  ++ +    + +     ",
"        + +  .+       o         ",
"      o  oo +   +++ +. ++       ",
"        +O+++o   .  o Oo        ",
"            O +O +O  +   o      ",
"        +  XO  ++O + ++         ",
"                  .             ",
"                                ",
"                                ",
"                                ",
"                                ",
"                                ",
"                                "
};
