/* XPM */
static char *_999548eab1f4861a41bd246e12c90e6lE93IsAflBVPxw9O[] = {
/* columns rows colors chars-per-pixel */
"32 32 5 1 ",
"  c black",
". c #FF5000",
"X c #EBAD3E",
"o c yellow",
"O c white",
/* pixels */
"                                ",
"                                ",
"                                ",
"                                ",
"                                ",
"                                ",
"                                ",
"                                ",
"          OO X                  ",
"          O                     ",
"        O     X       O         ",
"    O       O  O X.             ",
"                        OO      ",
"               .     O   O      ",
"        O            OX         ",
"           O .O X        .      ",
"         O  X O  O.  O          ",
"       X                        ",
"      .          X Xo           ",
"         Oo     OO O            ",
"          O   O       X         ",
"          X O   OO   . O        ",
"            OX                  ",
"                                ",
"        O          O            ",
"                                ",
"                                ",
"                                ",
"                                ",
"                                ",
"                                ",
"                                "
};
