/* XPM */
static char *_ea2b783ae2f4a53d92d8abb775ac00e01fKR344rURLlpdD[] = {
/* columns rows colors chars-per-pixel */
"32 32 6 1 ",
"  c black",
". c #FF5000",
"X c #FF6000",
"o c #EBAD3E",
"O c yellow",
"+ c white",
/* pixels */
"                                ",
"                                ",
"                                ",
"                                ",
"                     +          ",
"                                ",
"             +                  ",
"                                ",
"          ++ o o + +            ",
"          + + + +  +  +    +    ",
"        +  X  o   +   +         ",
"    +       ++ + oX  o.         ",
"        + o  +  o +X ++.++      ",
"           + o .   o + + +      ",
"        +    O ++O+  +o X       ",
"      ++ oX+ .+ o+ O X ++X +    ",
"     ++ X+O o +O +X+ + Xo       ",
"       o  ++ O ++     O+ +      ",
"      X  +  .+   o oOX+    +    ",
"    +    +O+ +  ++ +    + +     ",
"        + +  .+       o         ",
"      o + o +   +++ +. ++       ",
"        +O+++o   .  o Oo        ",
"     +      O +O +O  +   o      ",
"        +  .   ++o + ++         ",
"         o o +    .     o       ",
"                                ",
"                                ",
"                                ",
"                                ",
"                                ",
"                                "
};
