/* XPM */
static char *d128ea54c5d94f4ed438cc31001d8d5e6wPdKcjwabX8AF6s[] = {
/* columns rows colors chars-per-pixel */
"32 32 5 1 ",
"  c black",
". c #FF5000",
"X c #EBAD3E",
"o c yellow",
"O c white",
/* pixels */
"                                ",
"                                ",
"                                ",
"                                ",
"                                ",
"                                ",
"                                ",
"                                ",
"          OO X X O O            ",
"          O O                   ",
"        O     X       O         ",
"    O       OO O X.  X.         ",
"                       .OO      ",
"               .     O   O      ",
"        O            OX .       ",
"         X O .O X      OO.      ",
"        .O  X O  O.  O          ",
"       X                        ",
"      .          X Xo           ",
"         Oo     OO O    O       ",
"        O O   O       X         ",
"          X O   OO  O. O        ",
"            OX                  ",
"                                ",
"        O      OOX O OO         ",
"                  .             ",
"                                ",
"                                ",
"                                ",
"                                ",
"                                ",
"                                "
};
