/* XPM */
static char *e58000c020d644aa8f02601a5b4890ebZF6Yed8X2ygkDYaE[] = {
/* columns rows colors chars-per-pixel */
"32 32 5 1 ",
"  c black",
". c #FF5000",
"X c #EBAD3E",
"o c yellow",
"O c white",
/* pixels */
"                                ",
"                                ",
"                                ",
"                                ",
"                                ",
"                                ",
"                                ",
"                                ",
"          OO X                  ",
"          O                     ",
"        O     X       O         ",
"    O                           ",
"                        OO      ",
"               .     O   O      ",
"        O             X         ",
"           O .  X        .      ",
"         O  X    O.             ",
"                                ",
"      .                         ",
"          o      O              ",
"              O                 ",
"          X     O               ",
"            O                   ",
"                                ",
"        O                       ",
"                                ",
"                                ",
"                                ",
"                                ",
"                                ",
"                                ",
"                                "
};
